<svg width="76" height="79" viewBox="0 0 76 79" fill="none" xmlns="http://www.w3.org/2000/svg">
<path d="M51.7118 32.6513C47.3392 33.1954 47.3392 38.2136 47.3392 38.2136H56.0261C56.0844 38.2136 56.4925 32.6513 51.7118 32.6513ZM23.2607 39.1206H30.7233L26.992 24.3682L23.2607 39.1206Z" fill="white"/>
<path d="M0.989502 0.969727V78.3593H75.6152V0.969727H0.989502ZM34.5128 54.5378L31.8892 44.8037H22.0946L19.5293 54.5378H14.049L23.3772 21.345V19.0475H30.49L40.5761 54.5378H34.5128ZM61.3314 42.6876H47.3391C48.4468 54.296 59.6989 48.7336 59.6989 48.7336V53.5705C59.6989 53.5705 58.941 55.1424 51.0703 55.1424C43.1997 55.1424 41.5672 44.0782 41.5672 44.0782V41.2365C41.5672 41.2365 42.3251 27.9352 51.6533 27.9352C60.9816 27.9352 61.2731 36.7624 61.2731 36.7624V42.6876H61.3314Z" fill="white"/>
</svg>
