<svg width="36" height="25" viewBox="0 0 36 25" fill="none" xmlns="http://www.w3.org/2000/svg">
<path fill-rule="evenodd" clip-rule="evenodd" d="M10.9194 0.811523C12.3284 0.811437 13.7041 1.23574 14.8633 2.02797C16.0225 2.82019 16.9103 3.94277 17.4085 5.24632C17.9067 6.54986 17.9917 7.97255 17.6522 9.32507C17.3127 10.6776 16.5648 11.8958 15.5081 12.8175C16.5648 13.7393 17.3127 14.9575 17.6522 16.31C17.9917 17.6625 17.9067 19.0852 17.4085 20.3887C16.9103 21.6923 16.0225 22.8149 14.8633 23.6071C13.7041 24.3993 12.3284 24.8236 10.9194 24.8235H3.98256C3.06268 24.8235 2.18048 24.4621 1.53003 23.8188C0.87958 23.1755 0.51416 22.303 0.51416 21.3932V4.24181C0.51416 3.33204 0.87958 2.45953 1.53003 1.81623C2.18048 1.17293 3.06268 0.811523 3.98256 0.811523H10.9194ZM27.3943 7.67209C31.9153 7.67209 35.1982 11.7336 35.1982 16.2478C35.1981 16.6679 35.0422 17.0734 34.7599 17.3873C34.4776 17.7012 34.0887 17.9018 33.6669 17.9509L33.464 17.963H23.3015C23.9224 20.0623 25.6479 21.3932 27.3943 21.3932C29.2672 21.3932 30.3285 20.5168 31.2789 19.4208C31.5778 19.0751 32.0034 18.861 32.462 18.8256C32.9205 18.7903 33.3745 18.9365 33.7241 19.2322C34.0736 19.5278 34.2901 19.9487 34.3259 20.4023C34.3617 20.8558 34.2138 21.3048 33.9149 21.6505L33.7293 21.8598L33.3322 22.2817C32.0801 23.5543 30.2488 24.8235 27.3943 24.8235C22.8732 24.8235 19.5904 20.7621 19.5904 16.2478C19.5904 11.7336 22.8732 7.67209 27.3943 7.67209ZM10.9194 14.5327H3.98256V21.3932H10.9194C11.8194 21.3972 12.6857 21.055 13.3354 20.439C13.985 19.8229 14.3671 18.9812 14.4008 18.0917C14.4346 17.2022 14.1174 16.3345 13.5163 15.672C12.9152 15.0095 12.0773 14.604 11.1795 14.5412L10.9194 14.5327ZM27.3943 11.1024C25.6479 11.1024 23.9224 12.4333 23.3015 14.5327H31.487C30.8661 12.4333 29.1406 11.1024 27.3943 11.1024ZM10.9194 4.24181H3.98256V11.1024H10.9194C11.8392 11.1024 12.7214 10.741 13.3719 10.0977C14.0223 9.45437 14.3878 8.58186 14.3878 7.67209C14.3878 6.76233 14.0223 5.88982 13.3719 5.24652C12.7214 4.60321 11.8392 4.24181 10.9194 4.24181ZM29.9956 2.52667C30.4555 2.52667 30.8966 2.70737 31.2218 3.02902C31.547 3.35067 31.7298 3.78692 31.7298 4.24181C31.7298 4.69669 31.547 5.13295 31.2218 5.4546C30.8966 5.77625 30.4555 5.95695 29.9956 5.95695H24.793C24.333 5.95695 23.8919 5.77625 23.5667 5.4546C23.2415 5.13295 23.0588 4.69669 23.0588 4.24181C23.0588 3.78692 23.2415 3.35067 23.5667 3.02902C23.8919 2.70737 24.333 2.52667 24.793 2.52667H29.9956Z" fill="white"/>
</svg>
