<svg width="63" height="54" viewBox="0 0 63 54" fill="none" xmlns="http://www.w3.org/2000/svg">
<path d="M33.1615 30.1572C33.2765 28.0065 34.2902 26.1136 35.8231 24.769C37.4333 23.3819 39.4637 22.6283 41.5569 22.6408C43.7646 22.6408 45.7857 23.4469 47.2937 24.769C48.8236 26.1136 49.8403 28.0097 49.9554 30.1572C50.0735 32.3693 49.2184 34.4233 47.7135 35.9453C46.0568 37.584 43.8494 38.4886 41.56 38.467C39.2685 38.4903 37.0586 37.5856 35.4003 35.9453C33.8984 34.4233 33.0402 32.3693 33.1615 30.1572Z" fill="white"/>
<path d="M19.7814 34.5101C19.7969 35.3485 20.0581 36.9833 20.4437 38.2635C21.2878 41.0148 22.6965 43.5438 24.573 45.6767C26.5861 47.9791 29.0483 49.8114 31.7961 51.0521C34.7843 52.4155 38.0152 53.1131 41.2798 53.0997C44.5477 53.1034 47.7798 52.3948 50.7666 51.0199C53.5098 49.7624 55.9684 47.9224 57.9835 45.6187C59.8593 43.4814 61.266 40.9479 62.1066 38.1925C62.5157 36.8462 62.7765 35.4561 62.884 34.049C63.1775 29.9795 62.2101 25.9192 60.1228 22.4599C58.8489 20.3479 57.2221 18.4883 55.3188 16.9684L55.3219 16.9652L35.8912 1.49051L35.8415 1.44536C34.5635 0.432848 32.418 0.436074 31.0188 1.45181C29.5978 2.48045 29.4392 4.1798 30.6954 5.2568L30.6923 5.26003L38.7954 12.0993L14.0974 12.1284H14.0601C12.0203 12.1284 10.0583 13.5214 9.66962 15.2755C9.27161 17.0652 10.6584 18.5485 12.7821 18.5549L12.779 18.5646L25.3006 18.5388L2.9502 36.3255L2.86624 36.3932C0.761176 38.0668 0.0802163 40.8496 1.40482 42.6134C2.7543 44.4063 5.61496 44.4063 7.74801 42.6199L19.9431 32.2722C19.9462 32.2722 19.769 33.6685 19.7814 34.5101ZM51.118 39.1857C48.6056 41.8427 45.0919 43.3486 41.2829 43.3551C37.4708 43.3615 33.9572 41.8685 31.4417 39.2179C30.2494 37.986 29.3324 36.4978 28.7551 34.8583C28.2063 33.3011 27.995 31.6375 28.1364 29.986C28.2732 28.3576 28.7365 26.8034 29.4858 25.4007C30.2197 24.0173 31.2333 22.7726 32.4771 21.7118C34.9722 19.6321 38.0819 18.507 41.2829 18.5259C44.481 18.4997 47.5903 19.6156 50.0888 21.686C51.3294 22.7372 52.3431 23.9786 53.0769 25.3587C53.8232 26.7647 54.2896 28.3125 54.4264 29.9409C54.5687 31.5921 54.3585 33.2557 53.8107 34.8132C53.2244 36.4533 52.3062 37.9442 51.118 39.1857Z" fill="white"/>
</svg>
