<svg width="39" height="39" viewBox="0 0 39 39" fill="none" xmlns="http://www.w3.org/2000/svg">
<path d="M12.0066 19.3005L9.45746 21.0063V17.5946L12.0066 19.3005ZM18.255 15.1221V10.3688L10.2816 15.6971L13.8275 18.0738L18.255 15.1221ZM28.2791 15.6971L20.2866 10.3688V15.1221L24.7141 18.0738L28.2791 15.6971ZM10.2816 22.9038L18.255 28.2321V23.4788L13.8275 20.5271L10.2816 22.9038ZM20.2866 23.4788V28.2321L28.2791 22.9038L24.7141 20.5271L20.2866 23.4788ZM19.2708 16.8855L15.6675 19.3005L19.2708 21.7155L22.8741 19.3005L19.2708 16.8855ZM38.4375 19.3005C38.4375 29.8421 29.8125 38.4671 19.2708 38.4671C8.72913 38.4671 0.104126 29.8421 0.104126 19.3005C0.104126 8.75879 8.72913 0.133789 19.2708 0.133789C29.8125 0.133789 38.4375 8.75879 38.4375 19.3005ZM31.1158 15.6971V15.563L31.0966 15.4671L31.0775 15.3713C31.0583 15.3521 31.0583 15.333 31.0391 15.2946L31.02 15.2563L30.9816 15.1796L30.9625 15.1413L30.9241 15.0838L30.8858 15.0263L30.8283 14.9688L30.7708 14.9305V14.8921L30.6941 14.8538L30.675 14.8346L19.8458 7.62796C19.6785 7.51589 19.4817 7.45605 19.2804 7.45605C19.079 7.45605 18.8822 7.51589 18.715 7.62796L7.86663 14.8346V14.8538L7.77079 14.8921V14.9305L7.71329 14.9688L7.65579 15.0263L7.63663 15.0838L7.57913 15.1413L7.55996 15.1796L7.52163 15.2563L7.50246 15.2946L7.46413 15.3713V15.4671H7.44496L7.42579 15.563V23.038L7.44496 23.1338H7.46413V23.2296C7.48329 23.2488 7.48329 23.268 7.50246 23.3063L7.52163 23.3446L7.55996 23.4213L7.57913 23.4596L7.61746 23.5171L7.65579 23.5746L7.71329 23.6321L7.77079 23.6705V23.7088L7.84746 23.7471L7.86663 23.7663L18.715 30.9921C18.8683 31.1071 19.0791 31.1455 19.2708 31.1455C19.4625 31.1455 19.6733 31.088 19.8458 30.9921L30.675 23.7663L30.6941 23.7471L30.7708 23.7088V23.6705L30.8283 23.6321L30.8858 23.5746L30.9241 23.5171L30.9625 23.4596L30.9816 23.4213L31.02 23.3446L31.0391 23.3063L31.0775 23.2296V23.1338H31.0966L31.1158 23.038V15.6971ZM29.0841 21.0063V17.5946L26.535 19.3005L29.0841 21.0063Z" fill="#EF719E"/>
</svg>
