<svg width="63" height="71" viewBox="0 0 63 71" fill="none" xmlns="http://www.w3.org/2000/svg">
<path d="M43.3489 37.7561V32.7759H48.1513V37.7561H43.3489Z" fill="white"/>
<path fill-rule="evenodd" clip-rule="evenodd" d="M31.343 0.0107422L62.5586 18.8959V51.6362L31.343 70.5263L0.127441 51.6362V18.8959L31.343 0.0107422ZM25.7338 17.8351C23.6321 17.8338 21.5508 18.2621 19.6088 19.0956C17.6668 19.9291 15.9023 21.1514 14.4162 22.6925C12.93 24.2337 11.7514 26.0636 10.9477 28.0775C10.144 30.0914 9.73098 32.2498 9.73224 34.4294V36.1027C9.73289 38.9305 10.4303 41.7111 11.7583 44.1808C13.0864 46.6505 15.001 48.7273 17.3204 50.2141C19.6398 51.7009 22.2871 52.5484 25.0111 52.6761C27.735 52.8038 30.4453 52.2076 32.8846 50.9439L34.82 49.9479L32.6685 45.4905L30.7379 46.4866C29.0316 47.3735 27.1349 47.793 25.2281 47.7052C23.3213 47.6175 21.4679 47.0254 19.8441 45.9852C18.2202 44.9451 16.8799 43.4914 15.9506 41.7626C15.0213 40.0337 14.5338 38.0871 14.5346 36.1077V34.4343C14.5348 32.4552 15.0228 30.5089 15.9521 28.7803C16.8814 27.0516 18.2213 25.5979 19.8445 24.5572C21.4678 23.5164 23.3206 22.9231 25.2271 22.8335C27.1336 22.744 29.0306 23.1612 30.7379 24.0455L32.6685 25.0465L34.82 20.5942L32.8846 19.5932C30.6653 18.4334 28.219 17.8312 25.7338 17.8351ZM38.5466 22.8154V27.7956H33.7442V32.7759H38.5466V37.7562H33.7442V42.7365H38.5466V47.7167H43.349V42.7365H48.1514V47.7167H52.9538V42.7365H57.7562V37.7562H52.9538V32.7759H57.7562V27.7956H52.9538V22.8154H48.1514V27.7956H43.349V22.8154H38.5466Z" fill="white"/>
</svg>
