<svg width="55" height="76" viewBox="0 0 55 76" fill="none" xmlns="http://www.w3.org/2000/svg">
<path d="M13.8423 0.306152H21.5802V3.66161H17.0779V7.01706H21.5802V10.3725H13.8423V0.306152ZM23.1259 0.306152H30.8668V3.22583H26.3645V3.8079H30.8668V10.5188H23.1259V7.45595H27.6282V6.87077H23.1259V0.306152ZM32.4156 0.306152H40.1504V3.22583H35.6482V3.8079H40.1504V10.5188H32.4156V7.45595H36.9178V6.87077H32.4156V0.306152Z" fill="white"/>
<path fill-rule="evenodd" clip-rule="evenodd" d="M27.3158 75.0103L6.47342 69.0091L0.329346 14.9888H54.3563L48.2153 69.0029L27.3158 75.0103ZM12.4764 39.4419L13.0497 46.0656H35.1918L34.4504 54.6566L27.3248 56.6549H27.3188L20.2053 54.6628L19.7491 49.3806H13.3348L14.2293 59.7832L27.3158 63.5495L40.4234 59.7832L42.0202 41.2192L42.1763 39.4419L43.3288 26.0294H11.3268L11.9091 32.6563H36.3293L35.747 39.4419H12.4764Z" fill="white"/>
</svg>
