<svg width="28" height="28" viewBox="0 0 28 28" fill="none" xmlns="http://www.w3.org/2000/svg">
<path d="M7.001 2.75004C7.00098 2.61265 6.96323 2.47791 6.89186 2.36051C6.82049 2.24312 6.71825 2.14758 6.59629 2.08433C6.47433 2.02108 6.33734 1.99255 6.20026 2.00184C6.06319 2.01113 5.93131 2.0579 5.819 2.13704C4.176 3.29404 3.202 4.30404 2.65 5.28004C2.085 6.28004 2.001 7.17704 2.001 8.00004C2.001 9.13004 2.536 10.134 3.366 10.774C3.00891 11.1092 2.72615 11.5157 2.536 11.967C2.083 13.002 2 14.27 2 15.287C2 16.95 2.265 19.497 2.75 21.638C2.992 22.705 3.298 23.716 3.675 24.478C3.863 24.857 4.088 25.214 4.363 25.486C4.64 25.761 5.023 26 5.503 26C5.983 26 6.365 25.761 6.643 25.486C6.917 25.214 7.142 24.856 7.329 24.477C7.706 23.716 8.011 22.705 8.252 21.637C8.736 19.497 9 16.95 9 15.287C9 14.27 8.919 13.003 8.467 11.967C8.27697 11.5153 7.99421 11.1085 7.637 10.773C8.06144 10.4461 8.40514 10.026 8.64162 9.54523C8.8781 9.06446 9.00106 8.53582 9.001 8.00004C9.001 6.87404 8.449 6.09304 8.006 5.46604L7.868 5.26904C7.404 4.59904 7.001 3.92004 7.001 2.75004ZM5.475 11.5H5.529C5.978 11.505 6.284 11.622 6.508 11.784C6.74333 11.9527 6.938 12.214 7.092 12.568C7.412 13.301 7.5 14.302 7.5 15.288C7.5 16.835 7.25 19.27 6.79 21.308C6.558 22.33 6.284 23.208 5.985 23.812C5.835 24.116 5.697 24.312 5.586 24.421C5.56096 24.4473 5.53313 24.4708 5.503 24.491C5.47252 24.4708 5.44436 24.4474 5.419 24.421C5.308 24.311 5.17 24.116 5.019 23.811C4.719 23.207 4.445 22.329 4.213 21.307C3.752 19.27 3.5 16.835 3.5 15.287C3.5 14.303 3.589 13.302 3.91 12.569C4.06467 12.2157 4.26 11.9544 4.496 11.785C4.72 11.622 5.027 11.505 5.475 11.5ZM5.528 10H5.476C4.94974 9.99372 4.44717 9.78022 4.07728 9.40583C3.70738 9.03144 3.49996 8.52634 3.5 8.00004C3.5 7.30404 3.569 6.70104 3.955 6.01904C4.255 5.48704 4.769 4.87103 5.665 4.13303C5.88 4.97903 6.271 5.59804 6.633 6.12304L6.753 6.29404C7.224 6.97204 7.5 7.37004 7.5 8.00004C7.50005 8.52582 7.29304 9.03048 6.92379 9.40479C6.55454 9.77909 6.05374 9.99294 5.528 10ZM12.5 4.50004C11.29 4.50004 10.164 4.85804 9.221 5.47404C9.079 5.24604 8.938 5.05003 8.82 4.88403L8.69 4.70003C8.58208 4.54717 8.48033 4.39005 8.385 4.22904C9.48064 3.51009 10.7455 3.09077 12.0537 3.01284C13.3618 2.93492 14.6675 3.20111 15.8408 3.7849C17.014 4.36868 18.0138 5.24969 18.7406 6.34016C19.4674 7.43063 19.8957 8.69249 19.983 10H22.25C23.2444 10 24.1981 10.395 24.9013 11.098C25.6045 11.8011 25.9997 12.7546 26 13.749V20.249C26.0001 20.7416 25.9032 21.2293 25.7148 21.6844C25.5264 22.1395 25.2502 22.553 24.902 22.9013C24.5538 23.2497 24.1403 23.526 23.6853 23.7145C23.2303 23.903 22.7425 24 22.25 24H15.75C14.7554 24 13.8016 23.6049 13.0983 22.9017C12.3951 22.1984 12 21.2446 12 20.25V17.984C11.2783 17.9363 10.5672 17.7844 9.889 17.533C9.939 16.973 9.972 16.439 9.989 15.951C10.609 16.237 11.287 16.421 12 16.48V13.75C12 12.7555 12.3951 11.8016 13.0983 11.0984C13.8016 10.3951 14.7554 10 15.75 10H18.48C18.3546 8.50038 17.6702 7.1026 16.5626 6.08386C15.4549 5.06512 14.0049 4.49982 12.5 4.50004ZM19.934 11.5C19.7143 13.1292 18.9658 14.6411 17.8034 15.8035C16.641 16.9658 15.1291 17.7144 13.5 17.934V20.25C13.5 20.8468 13.7371 21.4191 14.159 21.841C14.581 22.263 15.1533 22.5 15.75 22.5H22.25C22.8467 22.5 23.419 22.263 23.841 21.841C24.2629 21.4191 24.5 20.8468 24.5 20.25V13.75C24.5 13.1533 24.2629 12.581 23.841 12.159C23.419 11.7371 22.8467 11.5 22.25 11.5H19.934ZM18.417 11.5H15.75C15.1533 11.5 14.581 11.7371 14.159 12.159C13.7371 12.581 13.5 13.1533 13.5 13.75V16.417C14.7284 16.2088 15.8616 15.6237 16.7426 14.7427C17.6236 13.8617 18.2088 12.7284 18.417 11.5Z" fill="white"/>
</svg>
