<svg width="38" height="60" viewBox="0 0 38 60" fill="none" xmlns="http://www.w3.org/2000/svg">
<path fill-rule="evenodd" clip-rule="evenodd" d="M8.93894 21.5704C7.88421 21.5704 6.83982 21.7859 5.86538 22.2045C4.89094 22.623 4.00555 23.2365 3.25974 24.01C2.51394 24.7834 1.92234 25.7016 1.51871 26.7121C1.11509 27.7226 0.907346 28.8057 0.907346 29.8995C0.907346 30.9933 1.11509 32.0764 1.51871 33.0869C1.92234 34.0974 2.51394 35.0156 3.25974 35.789C4.00555 36.5625 4.89094 37.176 5.86538 37.5946C6.83982 38.0131 7.88421 38.2286 8.93894 38.2286H16.9705V21.5704H8.93894ZM16.9705 16.7336H8.93894C6.80841 16.7336 4.76515 15.8559 3.25864 14.2936C1.75214 12.7313 0.905791 10.6124 0.905791 8.40293C0.905791 6.1935 1.75214 4.07456 3.25864 2.51226C4.76515 0.949958 6.80841 0.0722656 8.93894 0.0722656H16.9705V16.7336ZM21.6346 0.0722656V16.7336H29.6662C31.7694 16.6907 33.7724 15.7941 35.2452 14.2365C36.7179 12.6789 37.5429 10.5844 37.5429 8.40293C37.5429 6.22146 36.7179 4.12699 35.2452 2.56936C33.7724 1.01173 31.7694 0.115178 29.6662 0.0722656H21.6346ZM29.6662 21.5672C27.558 21.567 25.5342 22.4263 24.0316 23.9598C22.529 25.4933 21.6681 27.5781 21.6346 29.7641V30.0317C21.6604 31.673 22.1532 33.2698 23.0512 34.6216C23.9492 35.9734 25.2124 37.0198 26.6821 37.6295C28.1517 38.2392 29.7624 38.385 31.3116 38.0484C32.8609 37.7119 34.2798 36.9082 35.39 35.7381C36.5002 34.5681 37.2522 33.0839 37.5517 31.472C37.8512 29.8602 37.6847 28.1925 37.0731 26.6784C36.4616 25.1643 35.4323 23.8714 34.1145 22.9621C32.7967 22.0527 31.2491 21.5674 29.6662 21.5672ZM8.93894 43.0654C7.34969 43.0648 5.79596 43.5529 4.47425 44.4681C3.15254 45.3833 2.12223 46.6844 1.51363 48.2068C0.905021 49.7293 0.745463 51.4047 1.05513 53.0213C1.3648 54.6378 2.12979 56.1227 3.25334 57.2884C4.37688 58.454 5.80853 59.2479 7.36719 59.5696C8.92585 59.8914 10.5415 59.7266 12.0099 59.096C13.4782 58.4655 14.7332 57.3975 15.6162 56.0272C16.4992 54.6569 16.9705 53.0458 16.9705 51.3977V43.0654H8.93894Z" fill="white"/>
</svg>
