<svg width="59" height="88" viewBox="0 0 59 88" fill="none" xmlns="http://www.w3.org/2000/svg">
<path d="M56.2851 37.245C56.812 36.4331 57.0813 35.4848 57.057 34.5272C57.0326 33.5696 56.7158 32.6486 56.1489 31.8878C55.582 31.1269 54.7922 30.5625 53.8854 30.2703C52.9787 29.9781 51.9983 29.9721 51.0758 30.2531L36.6781 33.1145L37.0977 5.93632C37.1062 5.38754 37.0064 4.84475 36.8043 4.33896C36.6021 3.83317 36.3013 3.37429 35.9192 2.9885C35.5371 2.60272 35.0811 2.29759 34.5773 2.09054C34.0735 1.8835 33.5317 1.77859 32.9828 1.7818L27.1833 1.81566C26.6344 1.81885 26.0893 1.93011 25.579 2.14307C25.0687 2.35604 24.6032 2.66655 24.2091 3.05686C23.815 3.44718 23.5001 3.90966 23.2822 4.4179C23.0644 4.92614 22.9479 5.47019 22.9394 6.01898L22.5198 33.1972L8.15326 30.4483C7.23909 30.1782 6.25822 30.196 5.34225 30.4992C4.42628 30.8024 3.61902 31.3765 3.02879 32.1445C2.43856 32.9125 2.09358 33.8377 2.04016 34.7958C1.98674 35.754 2.22741 36.6994 2.7299 37.5051L28.7866 85.7731L56.2851 37.245Z" fill="#EF719E" stroke="#14FFBE" stroke-width="3" stroke-linecap="round" stroke-linejoin="round"/>
</svg>
