<svg width="24" height="24" viewBox="0 0 24 24" fill="none" xmlns="http://www.w3.org/2000/svg">
<path d="M11 8.275V7.85C10.2667 7.63333 9.66667 7.221 9.2 6.613C8.73333 6.005 8.5 5.30067 8.5 4.5C8.5 3.53333 8.84167 2.70833 9.525 2.025C10.2083 1.34167 11.0333 1 12 1C12.9667 1 13.7917 1.34167 14.475 2.025C15.1583 2.70833 15.5 3.53333 15.5 4.5C15.5 5.3 15.2667 6.00433 14.8 6.613C14.3333 7.22167 13.7333 7.634 13 7.85V8.275L20 12.3C20.3167 12.4833 20.5627 12.7293 20.738 13.038C20.9133 13.3467 21.0007 13.684 21 14.05V15.95C21 16.3167 20.9127 16.6543 20.738 16.963C20.5633 17.2717 20.3173 17.5173 20 17.7L13 21.725C12.6833 21.9083 12.35 22 12 22C11.65 22 11.3167 21.9083 11 21.725L4 17.7C3.68333 17.5167 3.43767 17.271 3.263 16.963C3.08833 16.655 3.00067 16.3173 3 15.95V14.05C3 13.6833 3.08767 13.346 3.263 13.038C3.43833 12.73 3.684 12.484 4 12.3L11 8.275ZM6.8 13L12 16L17.2 13L13 10.575V14H11V10.575L6.8 13Z" fill="white"/>
</svg>
