<svg width="55" height="76" viewBox="0 0 55 76" fill="none" xmlns="http://www.w3.org/2000/svg">
<path d="M6.57275 0.502441H9.82038V3.82988H12.7919V0.502441H16.0395V10.575H12.7919V7.20401H9.82038V10.575H6.57576L6.57275 0.502441ZM20.3076 3.84233H17.4502V0.502441H26.4157V3.84233H23.5552V10.575H20.3076V3.84233ZM27.8384 0.502441H31.2241L33.3071 4.04154L35.3872 0.502441H38.7728V10.575H35.5402V5.58231L33.3071 9.16499H33.2501L31.014 5.58543V10.575H27.8384V0.502441ZM40.3877 0.502441H43.6383V7.24759H48.2006V10.5781H40.3877V0.502441Z" fill="white"/>
<path fill-rule="evenodd" clip-rule="evenodd" d="M6.47042 69.2054L0.329346 15.1851H54.3563L48.2123 69.1992L27.3128 75.2066L6.47042 69.2054ZM18.8876 39.6351L18.3053 32.8494H42.7526L43.3228 26.2257H11.3268L13.0497 46.2619H35.1918L34.4504 54.8529L27.3248 56.8512H27.3188L20.2053 54.8591L19.7491 49.5769H13.3318L14.2263 59.9794L27.3128 63.7458L40.4204 59.9794L42.0172 41.4155L42.1733 39.6382L18.8876 39.6351Z" fill="white"/>
</svg>
