<svg width="29" height="29" viewBox="0 0 29 29" fill="none" xmlns="http://www.w3.org/2000/svg">
<path fill-rule="evenodd" clip-rule="evenodd" d="M14.5013 0.899902C10.8077 0.899902 10.3442 0.916053 8.89351 0.98207C7.44566 1.04837 6.45738 1.27759 5.59264 1.61391C4.69815 1.96128 3.93937 2.42595 3.18343 3.18218C2.42692 3.93812 1.96225 4.69689 1.61375 5.5911C1.27658 6.45613 1.04708 7.44469 0.981909 8.89197C0.917025 10.3427 0.900024 10.8065 0.900024 14.5C0.900024 18.1936 0.916458 18.6557 0.982192 20.1064C1.04878 21.5543 1.278 22.5425 1.61403 23.4073C1.96169 24.3018 2.42636 25.0606 3.18258 25.8165C3.93824 26.573 4.69701 27.0388 5.59094 27.3862C6.45625 27.7225 7.44481 27.9517 8.89237 28.018C10.3431 28.084 10.8063 28.1002 14.4996 28.1002C18.1935 28.1002 18.6556 28.084 20.1063 28.018C21.5541 27.9517 22.5435 27.7225 23.4088 27.3862C24.303 27.0388 25.0607 26.573 25.8163 25.8165C26.5728 25.0606 27.0375 24.3018 27.386 23.4076C27.7204 22.5425 27.9499 21.554 28.0179 20.1067C28.083 18.656 28.1 18.1936 28.1 14.5C28.1 10.8065 28.083 10.3429 28.0179 8.89225C27.9499 7.4444 27.7204 6.45613 27.386 5.59138C27.0375 4.69689 26.5728 3.93812 25.8163 3.18218C25.0598 2.42567 24.3033 1.961 23.408 1.61391C22.541 1.27759 21.5521 1.04837 20.1043 0.98207C18.6536 0.916053 18.1918 0.899902 14.4971 0.899902H14.5013ZM13.2812 3.35072C13.6433 3.35016 14.0473 3.35072 14.5012 3.35072C18.1325 3.35072 18.5629 3.36376 19.9968 3.42892C21.3228 3.48956 22.0425 3.71113 22.5219 3.89728C23.1566 4.14378 23.6091 4.43845 24.0848 4.91446C24.5608 5.39046 24.8555 5.8438 25.1026 6.47847C25.2887 6.95731 25.5106 7.67699 25.5709 9.003C25.6361 10.4367 25.6502 10.8674 25.6502 14.4969C25.6502 18.1264 25.6361 18.5571 25.5709 19.9908C25.5103 21.3168 25.2887 22.0365 25.1026 22.5153C24.856 23.15 24.5608 23.6019 24.0848 24.0776C23.6088 24.5536 23.1569 24.8483 22.5219 25.0948C22.0431 25.2818 21.3228 25.5028 19.9968 25.5634C18.5632 25.6286 18.1325 25.6428 14.5012 25.6428C10.8697 25.6428 10.4393 25.6286 9.00565 25.5634C7.67964 25.5022 6.95996 25.2807 6.48027 25.0945C5.8456 24.848 5.39226 24.5533 4.91626 24.0773C4.44025 23.6013 4.14558 23.1491 3.89851 22.5142C3.71236 22.0353 3.49051 21.3157 3.43016 19.9896C3.36499 18.556 3.35196 18.1253 3.35196 14.4935C3.35196 10.8617 3.36499 10.4333 3.43016 8.9996C3.49079 7.67359 3.71236 6.95391 3.89851 6.47451C4.14502 5.83983 4.44025 5.38649 4.91626 4.91049C5.39226 4.43448 5.8456 4.13981 6.48027 3.89275C6.95968 3.70574 7.67964 3.48474 9.00565 3.42382C10.2603 3.36716 10.7465 3.35016 13.2812 3.34732V3.35072ZM21.7609 5.60892C20.8599 5.60892 20.1289 6.33908 20.1289 7.24037C20.1289 8.14138 20.8599 8.87239 21.7609 8.87239C22.6619 8.87239 23.3929 8.14138 23.3929 7.24037C23.3929 6.33936 22.6619 5.60892 21.7609 5.60892ZM14.5013 7.51577C10.6443 7.51577 7.51708 10.643 7.51708 14.5C7.51708 18.3571 10.6443 21.4828 14.5013 21.4828C18.3584 21.4828 21.4844 18.3571 21.4844 14.5C21.4844 10.643 18.3584 7.51577 14.5013 7.51577ZM14.5013 9.96663C17.0048 9.96663 19.0347 11.9962 19.0347 14.5C19.0347 17.0036 17.0048 19.0334 14.5013 19.0334C11.9974 19.0334 9.96789 17.0036 9.96789 14.5C9.96789 11.9962 11.9974 9.96663 14.5013 9.96663Z" fill="black"/>
</svg>
