<svg width="55" height="57" viewBox="0 0 55 57" fill="none" xmlns="http://www.w3.org/2000/svg">
<path d="M9.33385 0.448242C6.9457 0.448242 4.65537 1.43206 2.9667 3.18328C1.27803 4.93449 0.329346 7.30965 0.329346 9.78624V47.1382C0.329346 49.6148 1.27803 51.99 2.9667 53.7412C4.65537 55.4924 6.9457 56.4762 9.33385 56.4762H45.3518C47.74 56.4762 50.0303 55.4924 51.719 53.7412C53.4077 51.99 54.3563 49.6148 54.3563 47.1382V9.78624C54.3563 7.30965 53.4077 4.93449 51.719 3.18328C50.0303 1.43206 47.74 0.448242 45.3518 0.448242H9.33385ZM31.3468 41.0841C33.5079 42.8895 35.665 43.7797 37.8181 43.7548C39.1387 43.7548 40.1513 43.5037 40.8556 43.0015C41.1835 42.7807 41.4504 42.4752 41.6299 42.115C41.8093 41.7548 41.8952 41.3523 41.8791 40.9471C41.8837 40.5053 41.7946 40.0677 41.6183 39.6654C41.442 39.2631 41.1826 38.9059 40.8586 38.6189C40.1543 37.9818 38.8216 37.3427 36.8606 36.7015C34.5054 35.9959 32.6895 35.0829 31.4129 33.9623C30.1603 32.8418 29.5219 31.2782 29.4979 29.2715C29.4979 27.377 30.2903 25.7905 31.8751 24.5123C33.4159 23.234 35.3869 22.5949 37.7881 22.5949C41.1337 22.5949 43.8181 23.4394 45.8411 25.1286L43.5299 28.8607C42.6977 28.1897 41.7431 27.7005 40.7235 27.4226C39.8074 27.1043 38.8501 26.9311 37.8841 26.909C36.7435 26.909 35.8301 27.1259 35.1437 27.5596C34.4634 27.9953 34.1232 28.566 34.1232 29.2715C34.1232 30.0476 34.5404 30.7096 35.3749 31.2574C36.2153 31.7845 37.646 32.3666 39.667 33.0036C42.1102 33.7569 43.8491 34.7612 44.8836 36.0167C45.9181 37.2721 46.4354 38.87 46.4354 40.8102C46.4354 42.7961 45.698 44.508 44.2233 45.9461C42.7706 47.3613 40.6575 48.1032 37.8841 48.1716C34.2523 48.1716 31.2148 47.0417 28.7716 44.782L31.3468 41.0841ZM14.7486 43.07C15.4529 43.5265 16.3003 43.7548 17.2908 43.7548C18.3253 43.7548 19.1838 43.4466 19.8661 42.8303C20.5464 42.1912 20.8876 41.0841 20.8896 39.5091V23.0057H25.3468V40.3993C25.2808 43.0928 24.5324 45.033 23.1017 46.22C22.3189 46.9064 21.4087 47.4191 20.4274 47.7265C19.5174 48.0139 18.5722 48.1638 17.621 48.1716C15.9702 48.1716 14.5064 47.8749 13.2298 47.2814C11.8651 46.6444 10.7205 45.5145 9.79608 43.8917L12.8996 41.2553C13.4699 42.0542 14.0862 42.6591 14.7486 43.07Z" fill="white"/>
</svg>
