<svg width="63" height="66" viewBox="0 0 63 66" fill="white" xmlns="http://www.w3.org/2000/svg">
<path d="M26.4828 27.8806C26.5299 28.8597 26.2446 29.8249 25.6765 30.6085C25.1084 31.392 24.2935 31.9443 23.3734 32.1693C21.7503 32.6664 20.0574 32.8736 18.3673 32.782C17.932 32.782 17.9009 32.4918 17.9009 32.1693V23.9467C17.9009 23.7209 18.1185 23.334 18.2429 23.334C20.0216 23.1274 21.8215 23.2475 23.56 23.6887C24.4349 23.9373 25.2017 24.4885 25.7332 25.2509C26.2648 26.0133 26.5293 26.9411 26.4828 27.8806Z" fill="white"/>
<path d="M46.8495 0.536621H15.7555C11.6322 0.536621 7.67774 2.23527 4.76211 5.25889C1.84648 8.28251 0.208496 12.3834 0.208496 16.6595V48.9051C0.208496 53.1812 1.84648 57.2821 4.76211 60.3057C7.67774 63.3293 11.6322 65.028 15.7555 65.028H46.8495C50.9729 65.028 54.9273 63.3293 57.843 60.3057C60.7586 57.2821 62.3966 53.1812 62.3966 48.9051V16.6595C62.3966 12.3834 60.7586 8.28251 57.843 5.25889C54.9273 2.23527 50.9729 0.536621 46.8495 0.536621ZM28.1931 36.0069C26.6239 37.0404 24.8254 37.6399 22.9693 37.7481H18.8027C17.9321 37.7481 17.9321 37.7481 17.9321 38.6188V46.0998C17.9321 46.7447 17.7455 46.9381 17.1237 46.9381H13.0192C12.4285 46.9381 12.273 46.7124 12.273 46.132V18.9489C12.273 18.304 12.273 18.1105 13.0503 18.1105H22.7828C24.5592 18.1604 26.2936 18.6823 27.82 19.6261C29.1382 20.3964 30.2357 21.5156 31.0005 22.8695C31.7653 24.2235 32.17 25.7636 32.1732 27.3328C32.353 29.0194 32.0759 30.7246 31.3728 32.2569C30.6697 33.7891 29.5686 35.0877 28.1931 36.0069ZM46.6008 46.6479C43.8967 47.7405 40.9361 47.9542 38.1121 47.2606C37.2643 47.0671 36.4351 46.8092 35.6246 46.4867C35.4996 46.4259 35.3897 46.3361 35.3035 46.2243C35.2172 46.1125 35.1569 45.9816 35.1271 45.8418V40.9727C36.1221 41.3596 37.0549 41.8111 38.0188 42.1335C39.6343 42.669 41.3447 42.8232 43.025 42.585C43.3608 42.5205 43.6821 42.413 43.9889 42.2625C44.1711 42.1798 44.3295 42.0494 44.4487 41.8842C44.5678 41.719 44.6437 41.5246 44.6687 41.3199C44.6938 41.1153 44.6672 40.9074 44.5917 40.7165C44.5161 40.5257 44.3941 40.3584 44.2377 40.231C43.5263 39.7204 42.7656 39.2881 41.9678 38.9412C40.6929 38.2963 39.387 37.7804 38.1743 37.0387C37.0794 36.4863 36.1855 35.5824 35.6253 34.4613C35.0652 33.3401 34.8686 32.0615 35.0649 30.8153C35.2231 29.6159 35.7035 28.4869 36.4514 27.5574C37.1992 26.6279 38.1842 25.9355 39.2937 25.5593C41.2934 24.858 43.4273 24.6699 45.5125 25.0111C46.5075 25.0111 47.4714 25.398 48.4664 25.5915C48.995 25.5915 49.1816 26.0429 49.1505 26.5911V30.3639C49.1505 31.0733 48.995 31.1378 48.3732 30.8798C46.4311 29.9474 44.2844 29.5689 42.1544 29.7834C41.8526 29.8198 41.5585 29.907 41.2837 30.0414C41.0972 30.1174 40.933 30.2425 40.8075 30.4045C40.6819 30.5665 40.5994 30.7597 40.568 30.9649C40.5365 31.1702 40.5574 31.3804 40.6284 31.5747C40.6994 31.769 40.8181 31.9408 40.9728 32.0729C41.8724 32.6942 42.8156 33.2316 43.8023 33.6852C44.9839 34.2978 46.2277 34.7815 47.3782 35.4587C48.4221 35.9513 49.2869 36.7771 49.8463 37.8155C50.4056 38.8539 50.6303 40.0505 50.4876 41.2307C50.3893 42.408 49.9681 43.5315 49.2739 44.4686C48.5797 45.4057 47.6413 46.1171 46.5697 46.5189L46.6008 46.6479Z" fill="white"/>
</svg>
