<svg width="256" height="256" viewBox="0 0 256 256" fill="none" xmlns="http://www.w3.org/2000/svg">
<g clip-path="url(#clip0_3649_396)">
<path d="M196 0H60C26.8629 0 0 26.8629 0 60V196C0 229.137 26.8629 256 60 256H196C229.137 256 256 229.137 256 196V60C256 26.8629 229.137 0 196 0Z" fill="white"/>
<path d="M49.158 100.246H77.566C85.904 100.317 91.946 102.719 95.692 107.454C99.4373 112.188 100.674 118.654 99.402 126.852C98.9073 130.597 97.812 134.272 96.116 137.876C94.4907 141.48 92.2293 144.731 89.332 147.628C85.7987 151.302 82.018 153.634 77.99 154.624C73.9613 155.613 69.792 156.108 65.482 156.108H52.762L48.734 176.248H34L49.158 100.246ZM61.56 112.33L55.2 144.13C55.624 144.201 56.048 144.236 56.472 144.236H57.956C64.7407 144.307 70.394 143.635 74.916 142.222C79.4387 140.738 82.4773 135.579 84.032 126.746C85.304 119.326 84.032 115.051 80.216 113.92C76.4707 112.79 71.7713 112.26 66.118 112.33C65.2707 112.401 64.458 112.436 63.68 112.436H61.454L61.56 112.33ZM116.186 80H130.814L126.68 100.246H139.824C147.031 100.388 152.402 101.872 155.936 104.698C159.54 107.525 160.6 112.895 159.116 120.81L152.014 156.108H137.174L143.958 122.4C144.664 118.867 144.452 116.358 143.322 114.874C142.192 113.39 139.754 112.648 136.008 112.648L124.242 112.542L115.55 156.108H100.922L116.186 80ZM174.824 100.246H203.232C211.57 100.317 217.612 102.719 221.358 107.454C225.103 112.188 226.34 118.654 225.068 126.852C224.573 130.597 223.478 134.272 221.782 137.876C220.157 141.48 217.895 144.731 214.998 147.628C211.465 151.302 207.684 153.634 203.656 154.624C199.627 155.613 195.458 156.108 191.148 156.108H178.428L174.4 176.248H159.666L174.824 100.246ZM187.226 112.33L180.866 144.13C181.29 144.201 181.714 144.236 182.138 144.236H183.622C190.407 144.307 196.06 143.635 200.582 142.222C205.105 140.738 208.143 135.579 209.698 126.746C210.97 119.326 209.698 115.051 205.882 113.92C202.137 112.79 197.437 112.26 191.784 112.33C190.936 112.401 190.123 112.436 189.346 112.436H187.12L187.226 112.33Z" fill="black"/>
</g>
<defs>
<clipPath id="clip0_3649_396">
<rect width="256" height="256" fill="white"/>
</clipPath>
</defs>
</svg>
