<svg width="73" height="76" viewBox="0 0 73 76" fill="none" xmlns="http://www.w3.org/2000/svg">
<path d="M14.7322 60.2857H7.52855C5.61804 60.2857 3.78577 59.4986 2.43484 58.0976C1.0839 56.6967 0.324951 54.7965 0.324951 52.8153L0.324951 27.9139C0.324951 25.9327 1.0839 24.0325 2.43484 22.6316C3.78577 21.2306 5.61804 20.4435 7.52855 20.4435H38.7441V15.4633H33.9417V10.483H29.1393V15.4633H19.5345V7.99286C19.5345 6.01159 20.2935 4.11146 21.6444 2.71049C22.9954 1.30952 24.8276 0.522461 26.7381 0.522461L45.9477 0.522461C47.8583 0.522461 49.6905 1.30952 51.0415 2.71049C52.3924 4.11146 53.1513 6.01159 53.1513 7.99286V32.8942C53.1513 33.5546 52.8984 34.188 52.4481 34.655C51.9977 35.122 51.387 35.3843 50.7501 35.3843H21.9357C20.0252 35.3843 18.193 36.1714 16.842 37.5724C15.4911 38.9733 14.7322 40.8735 14.7322 42.8547V60.2857Z" fill="white"/>
<path d="M57.9536 15.4634V32.8943C57.9536 34.8756 57.1947 36.7757 55.8437 38.1767C54.4928 39.5777 52.6605 40.3647 50.75 40.3647H21.9356C21.2988 40.3647 20.688 40.6271 20.2377 41.0941C19.7874 41.561 19.5344 42.1944 19.5344 42.8548V67.7562C19.5344 69.7374 20.2934 71.6376 21.6443 73.0385C22.9952 74.4395 24.8275 75.2266 26.738 75.2266H45.9476C47.8581 75.2266 49.6904 74.4395 51.0413 73.0385C52.3923 71.6376 53.1512 69.7374 53.1512 67.7562V60.2858H43.5464V65.266H38.744V60.2858H33.9416V55.3055H65.1572C67.0677 55.3055 68.9 54.5185 70.2509 53.1175C71.6019 51.7165 72.3608 49.8164 72.3608 47.8351V22.9338C72.3608 20.9525 71.6019 19.0524 70.2509 17.6514C68.9 16.2504 67.0677 15.4634 65.1572 15.4634H57.9536Z" fill="white"/>
</svg>
