<svg width="37" height="37" viewBox="0 0 37 37" fill="none" xmlns="http://www.w3.org/2000/svg">
<g clip-path="url(#clip0_3569_343)">
<path d="M17.0881 0.133789C12.7541 0.379613 8.65559 2.18597 5.55002 5.21903C2.44444 8.25209 0.541763 12.3068 0.193624 16.6338C0.122104 17.6325 0.122104 18.6351 0.193624 19.6338C0.542841 23.9673 2.45128 28.0273 5.56523 31.0613C8.67918 34.0953 12.7875 35.8974 17.1286 36.1338H19.1476C23.571 35.8664 27.7418 33.9828 30.867 30.841C33.9921 27.6992 35.8537 23.5185 36.0976 19.0938C36.1493 18.2446 36.1493 17.393 36.0976 16.5438C35.7062 12.2321 33.7801 8.20411 30.6697 5.19254C27.5593 2.18097 23.4712 0.385881 19.1491 0.133789L17.0881 0.133789ZM22.6381 9.89879L27.1231 12.5088C27.1231 12.5088 18.0271 17.3688 17.9971 17.3688C17.9671 17.3688 8.85612 12.5388 8.83812 12.5238L13.3291 9.86879L17.8171 7.22879L22.6381 9.89879ZM12.9241 17.5878L16.6381 19.6338V28.5138L12.8476 26.4138L9.15762 24.2688V15.6288L12.9241 17.5878ZM27.1156 19.9458V24.3318L23.3881 26.4948L19.6381 28.6593V19.6233L23.3716 17.6058L27.1216 15.5733L27.1156 19.9458Z" fill="black"/>
</g>
<defs>
<clipPath id="clip0_3569_343">
<rect width="36" height="36" fill="white" transform="translate(0.138123 0.133789)"/>
</clipPath>
</defs>
</svg>
