<svg width="23" height="37" viewBox="0 0 23 37" fill="none" xmlns="http://www.w3.org/2000/svg">
<path d="M0.359863 4.53394C0.359863 3.34046 0.833969 2.19587 1.67788 1.35196C2.5218 0.508041 3.66639 0.0339355 4.85986 0.0339355L18.3599 0.0339355C19.5533 0.0339355 20.6979 0.508041 21.5418 1.35196C22.3858 2.19587 22.8599 3.34046 22.8599 4.53394V31.5339C22.8599 32.7274 22.3858 33.872 21.5418 34.7159C20.6979 35.5598 19.5533 36.0339 18.3599 36.0339H4.85986C3.66639 36.0339 2.5218 35.5598 1.67788 34.7159C0.833969 33.872 0.359863 32.7274 0.359863 31.5339V4.53394ZM13.8599 29.2839C13.8599 28.6872 13.6228 28.1149 13.2009 27.6929C12.7789 27.271 12.2066 27.0339 11.6099 27.0339C11.0131 27.0339 10.4408 27.271 10.0189 27.6929C9.59692 28.1149 9.35986 28.6872 9.35986 29.2839C9.35986 29.8807 9.59692 30.453 10.0189 30.8749C10.4408 31.2969 11.0131 31.5339 11.6099 31.5339C12.2066 31.5339 12.7789 31.2969 13.2009 30.8749C13.6228 30.453 13.8599 29.8807 13.8599 29.2839Z" fill="black"/>
</svg>
