<svg width="76" height="78" viewBox="0 0 76 78" fill="none" xmlns="http://www.w3.org/2000/svg">
<path d="M1.23408 27.311C1.23408 27.311 -0.581808 25.9341 1.59788 24.1026L6.68176 19.3367C6.68176 19.3367 8.13385 17.7341 9.673 19.1303L56.5659 56.3483V74.193C56.5659 74.193 56.5442 76.9984 53.1145 76.6888L1.23408 27.311Z" fill="white"/>
<path d="M13.3235 38.8132L1.23418 50.3314C1.23418 50.3314 -0.00958204 51.2988 1.23418 53.0304L6.84665 58.3831C6.84665 58.3831 8.18059 59.8826 10.1488 58.1735L22.9627 47.9904L13.3235 38.8132ZM34.5421 38.9068L56.7122 21.1652L56.566 3.41395C56.566 3.41395 55.6176 -0.461978 52.4616 1.5566L22.9627 29.6974L34.5421 38.9068Z" fill="white"/>
<path d="M53.1113 76.7114C54.3986 78.0915 55.9595 77.6401 55.9595 77.6401L73.2354 68.7177C75.4461 67.1377 75.1352 65.1772 75.1352 65.1772V11.8912C75.1352 9.55016 72.8498 8.74079 72.8498 8.74079L57.8749 1.17273C54.6038 -0.945809 52.4614 1.55645 52.4614 1.55645C52.4614 1.55645 55.2164 -0.523391 56.5658 3.4138V73.8706C56.5658 74.3543 56.4663 74.8283 56.2704 75.2571C55.8756 76.0923 55.0205 76.8694 52.9683 76.547L53.1113 76.7114Z" fill="white"/>
</svg>
