<svg width="256" height="256" viewBox="0 0 256 256" fill="none" xmlns="http://www.w3.org/2000/svg">
<path d="M128 21.3335C69.2268 21.3335 21.3335 69.2268 21.3335 128C21.3335 186.773 69.2268 234.667 128 234.667C186.773 234.667 234.667 186.773 234.667 128C234.667 69.2268 186.773 21.3335 128 21.3335ZM32.1068 128C32.1068 114.133 35.0935 100.907 40.4268 88.9602L86.1868 214.293C54.1868 198.72 32.1068 165.973 32.1068 128ZM128 223.893C118.613 223.893 109.547 222.507 100.907 219.947L129.707 136.32L159.147 217.067C159.36 217.493 159.573 218.027 159.787 218.347C149.867 221.973 139.2 223.893 128 223.893ZM141.227 82.9868C146.987 82.6668 152.213 82.0268 152.213 82.0268C157.333 81.3868 156.8 73.8135 151.573 74.1335C151.573 74.1335 136 75.3068 125.973 75.3068C116.587 75.3068 100.693 74.1335 100.693 74.1335C95.5735 73.9202 94.9335 81.8135 100.16 82.1335C100.16 82.1335 105.067 82.7735 110.187 83.0935L125.12 124.053L104.107 186.987L69.2268 82.9868C74.9868 82.7735 80.2135 82.1335 80.2135 82.1335C85.3335 81.4935 84.8002 73.9202 79.5735 74.2402C79.5735 74.2402 64.0002 75.4135 53.9735 75.4135C52.1602 75.4135 50.0268 75.4135 47.7868 75.3068C65.0668 49.2802 94.5068 32.1068 128 32.1068C152.96 32.1068 175.68 41.6002 192.747 57.2802C192.32 57.2802 191.893 57.1735 191.467 57.1735C182.08 57.1735 175.36 65.3868 175.36 74.2402C175.36 82.1335 179.947 88.8535 184.747 96.7468C188.373 103.147 192.64 111.36 192.64 123.2C192.64 131.413 189.44 140.907 185.387 154.24L175.787 186.24L141.227 82.9868ZM212.16 82.0268C224.136 103.955 227.08 129.691 220.366 153.757C213.652 177.823 197.811 198.318 176.213 210.88L205.547 126.187C210.987 112.533 212.8 101.547 212.8 91.8402C212.8 88.3202 212.587 85.0135 212.16 82.0268Z" fill="white"/>
</svg>
