<svg width="29" height="20" viewBox="0 0 29 20" fill="none" xmlns="http://www.w3.org/2000/svg">
<path fill-rule="evenodd" clip-rule="evenodd" d="M25.1267 0.733809C26.2971 1.05496 27.2188 2.00125 27.5316 3.20294C28.1 5.38088 28.1 9.92515 28.1 9.92515C28.1 9.92515 28.1 14.4693 27.5316 16.6474C27.2188 17.849 26.2971 18.7953 25.1267 19.1166C23.0057 19.7001 14.5 19.7001 14.5 19.7001C14.5 19.7001 5.99431 19.7001 3.87317 19.1166C2.7028 18.7953 1.78109 17.849 1.46829 16.6474C0.900024 14.4693 0.900024 9.92515 0.900024 9.92515C0.900024 9.92515 0.900024 5.38088 1.46829 3.20294C1.78109 2.00125 2.7028 1.05496 3.87317 0.733809C5.99431 0.150146 14.5 0.150146 14.5 0.150146C14.5 0.150146 23.0057 0.150146 25.1267 0.733809ZM11.9501 6.10006V14.6001L18.7501 10.3502L11.9501 6.10006Z" fill="black"/>
</svg>
